<svg xmlns="http://www.w3.org/2000/svg" width="920" height="854" viewBox="0 0 920 854" version="1.1"><path d="M 396.500 43.348 C 385.606 48.354, 383.952 65.695, 392.028 90.225 C 395.324 100.236, 405.515 120.074, 410.021 125.250 C 413.994 129.814, 417.874 131.719, 416.638 128.500 C 415.895 126.563, 417.392 126.563, 419 128.500 C 421.257 131.220, 421.934 130.065, 420.487 125.964 C 418.482 120.281, 416 106.622, 416 101.272 C 416 98.793, 417.350 90.273, 419 82.339 C 423.562 60.404, 422.750 52.726, 415.109 45.546 C 412.437 43.036, 411.029 42.546, 405.733 42.281 C 401.915 42.091, 398.337 42.504, 396.500 43.348 M 328.625 62.409 C 323.649 64.260, 318.351 69.406, 316.902 73.796 C 314.180 82.045, 318.569 93.326, 328.665 104.028 C 335.866 111.661, 341.547 114.945, 364.958 125.005 C 372.910 128.422, 381.685 132.469, 384.458 133.999 C 394.226 139.388, 413.339 149, 414.286 149 C 414.813 149, 414.627 148.251, 413.872 147.336 C 412.617 145.814, 412.713 145.783, 415 146.972 C 416.375 147.686, 417.630 148.378, 417.789 148.508 C 417.949 148.639, 416.936 150.895, 415.539 153.522 C 410.975 162.107, 412.452 171.678, 419.265 177.660 C 424.145 181.944, 429.035 183.386, 436.162 182.641 C 448.112 181.392, 455.055 174.844, 455.758 164.160 C 456.238 156.847, 453.268 150.753, 447.156 146.513 C 443.342 143.868, 441.996 143.509, 436.125 143.571 C 432.219 143.612, 427.212 144.442, 424.087 145.566 L 418.737 147.490 417.119 145.011 C 416.228 143.648, 410.823 136, 405.106 128.016 C 399.390 120.032, 391.578 108.325, 387.748 102 C 373.797 78.963, 366.260 70.617, 354.198 64.851 C 346.224 61.039, 335.151 59.982, 328.625 62.409 M 487.321 108.813 L 475.638 122.292 478.569 124.764 C 480.181 126.124, 483.058 128.631, 484.961 130.335 C 486.865 132.039, 496.315 140.141, 505.961 148.340 C 525.817 165.215, 538.757 176.313, 550.458 186.503 C 554.881 190.355, 561.425 195.952, 565 198.942 C 568.575 201.932, 571.950 204.858, 572.500 205.444 C 573.050 206.030, 578 210.317, 583.500 214.972 C 589 219.627, 594.004 223.899, 594.619 224.467 C 595.235 225.035, 598.156 227.525, 601.110 230 C 604.064 232.475, 609.751 237.332, 613.747 240.792 C 617.796 244.298, 621.769 246.955, 622.719 246.792 C 623.658 246.632, 626.242 244.435, 628.463 241.912 C 639.686 229.157, 646.500 220.903, 646.500 220.063 C 646.500 219.549, 634.575 208.921, 620 196.447 C 605.425 183.972, 591.925 172.335, 590 170.588 C 588.075 168.841, 582.006 163.633, 576.513 159.014 C 571.020 154.395, 565.170 149.413, 563.513 147.941 C 561.856 146.469, 553.750 139.526, 545.500 132.510 C 537.250 125.495, 527.800 117.396, 524.500 114.513 C 521.200 111.629, 515.125 106.403, 511 102.898 C 506.875 99.394, 503.275 96.251, 503 95.915 C 501.305 93.840, 497.794 96.728, 487.321 108.813 M 338.500 141.602 C 328.053 143.459, 318.810 147.953, 315.963 152.560 C 311.182 160.295, 313.102 169.928, 320.557 175.608 C 323.856 178.123, 325.209 178.499, 330.926 178.490 C 338.858 178.479, 344.501 176.489, 355.846 169.704 C 368.509 162.129, 382.316 157.280, 396.375 155.468 L 401.250 154.840 397.528 151.029 C 388.944 142.238, 360.487 137.693, 338.500 141.602 M 471.147 161.921 C 439.654 198.934, 421.824 219.512, 420.983 219.815 C 420.503 219.988, 414.573 218.132, 407.805 215.690 C 352.881 195.876, 292.949 195.060, 237 213.365 C 204.301 224.064, 173.538 241.847, 148 264.814 C 125.014 285.486, 110.321 303.545, 95.369 329.500 C 78.426 358.911, 68.647 388.624, 63.445 426.500 C 60.944 444.712, 61.844 479.481, 65.321 499 C 71.968 536.310, 84.113 567.062, 104.419 598 C 141.154 653.971, 201.280 694.264, 267.213 707.097 C 293.706 712.253, 323.676 713.492, 349.212 710.485 C 406.398 703.752, 458.120 679.186, 498.404 639.623 C 514.727 623.592, 525.609 610.277, 535.605 594.107 C 539.397 587.971, 545.456 578.803, 549.070 573.733 L 555.640 564.515 561.570 563.290 C 585.747 558.296, 600.565 553.468, 615.108 545.847 C 626.916 539.659, 636.270 533.246, 635.442 531.906 C 634.332 530.110, 630.680 531.063, 626.134 534.335 C 609.481 546.320, 589.659 554.126, 562.079 559.560 L 558.658 560.234 562.550 554.867 C 577.484 534.275, 604.051 501.640, 636.927 463.500 C 645.461 453.600, 652.681 445.275, 652.972 445 C 653.262 444.725, 658.443 438.875, 664.484 432 C 670.526 425.125, 677.321 417.475, 679.586 415 C 681.850 412.525, 689.015 404.650, 695.507 397.500 C 728.682 360.968, 764.814 325.340, 800 294.468 C 806.875 288.435, 812.950 282.999, 813.500 282.386 C 814.050 281.774, 823.725 273.269, 835 263.487 C 846.275 253.705, 855.900 245.023, 856.388 244.193 C 857.750 241.879, 846.907 243.210, 830.309 247.395 C 792.930 256.820, 756.269 273.943, 709.828 303.668 C 690.321 316.154, 676.553 326.189, 652.500 345.452 C 629.913 363.541, 586.905 400.241, 564 420.972 C 559.325 425.203, 553.629 430.330, 551.342 432.365 L 547.185 436.066 543.533 430.054 C 529.468 406.901, 506.067 385.217, 483.759 374.666 C 453.298 360.260, 419.639 359.722, 393.681 373.227 C 384.370 378.071, 371.468 390.274, 366.145 399.272 C 351.217 424.507, 351.390 456.037, 366.610 483.956 C 376.587 502.256, 396.404 521.853, 420.756 537.500 C 424.180 539.700, 426.873 541.782, 426.741 542.127 C 426.115 543.759, 414.360 552.938, 403.952 559.921 C 368.910 583.434, 332.570 599.662, 299.281 606.664 C 288.040 609.028, 284.150 609.361, 267 609.426 C 246.581 609.503, 240.317 608.666, 225 603.811 C 199.996 595.884, 185.720 579.111, 192.621 565.766 L 194.242 562.631 196.128 566.509 C 199.937 574.339, 204.474 576.983, 214.124 576.994 C 226.756 577.010, 236.543 568.300, 234.475 558.884 C 233.505 554.472, 227.646 548.412, 222.417 546.415 C 213.603 543.049, 199.635 545.991, 191.810 552.862 C 186.619 557.420, 184.998 561.540, 185.010 570.151 C 185.032 586.748, 196.272 598.371, 220.277 606.619 C 243.351 614.548, 265.231 615.637, 296.500 610.415 C 335.059 603.975, 380.666 582.770, 422 552.065 C 426.675 548.592, 431.026 545.548, 431.669 545.299 C 432.312 545.051, 437.733 546.650, 443.716 548.851 C 464.070 556.341, 490.600 561.985, 512.750 563.539 C 518.388 563.934, 523 564.653, 523 565.137 C 523 565.620, 520.182 569.950, 516.738 574.758 C 513.295 579.566, 509.178 585.525, 507.591 588 C 492.504 611.521, 461.781 640.340, 440.606 650.832 C 409.866 666.065, 379.536 673, 343.658 673 C 287.411 673, 237.529 652.889, 196.306 613.590 C 178.207 596.336, 165.354 578.858, 153.966 556.013 C 122.214 492.320, 127.165 413.805, 166.649 354.843 C 199.987 305.060, 249.381 272.600, 308 261.953 C 324.442 258.966, 354.148 258.237, 371.579 260.392 C 412.833 265.493, 449.578 281.462, 482.682 308.677 C 503.580 325.858, 524.538 351.684, 532.030 369.487 L 534.560 375.500 547.950 375.780 C 555.314 375.934, 561.745 375.655, 562.240 375.160 C 564.278 373.122, 552.591 347.335, 537.640 320.881 L 535.595 317.261 540.047 311.884 C 542.496 308.926, 545.680 305.155, 547.122 303.503 C 550.737 299.362, 562.990 285.065, 572 274.475 C 580.189 264.849, 585.322 258.921, 594.500 248.486 C 597.800 244.734, 600.500 241.137, 600.500 240.493 C 600.500 239.585, 569.195 211.960, 555.121 200.446 C 553.812 199.376, 551.717 197.600, 550.466 196.500 C 549.215 195.400, 546.235 192.857, 543.845 190.849 C 535.581 183.906, 529.172 178.430, 509.563 161.560 C 498.734 152.243, 489.025 144.557, 487.989 144.481 C 486.700 144.386, 481.378 149.897, 471.147 161.921 M 546.314 250.750 C 533.766 265.462, 522.842 278.336, 522.038 279.358 C 520.703 281.055, 520.937 281.551, 524.750 285.108 C 527.045 287.248, 529.502 288.976, 530.211 288.947 C 531.343 288.900, 576.187 237.080, 578.326 233.348 C 578.911 232.327, 577.892 230.756, 574.826 227.954 C 572.447 225.779, 570.192 224, 569.815 224 C 569.437 224, 558.862 236.037, 546.314 250.750 M 301 226.024 C 263.520 229.415, 223.202 243.134, 194.582 262.236 C 179.438 272.343, 171.084 278.946, 160.301 289.332 C 130.236 318.290, 108.067 354.709, 98.414 391 C 97.024 396.225, 95.465 401.625, 94.949 403 C 93.277 407.456, 90.077 428.567, 88.968 442.456 C 85.974 479.949, 95.339 523.794, 114.504 562.008 C 135.618 604.109, 173.639 641.584, 216.500 662.541 C 235.199 671.684, 253.423 677.950, 275 682.658 C 284.199 684.664, 305.299 687.019, 312.994 686.897 L 319.500 686.794 309.951 685.490 C 299.996 684.131, 279.485 679.283, 269.979 676.043 C 217.711 658.228, 175.766 624.943, 148.319 579.500 C 134.042 555.861, 125.879 534.539, 120.180 506 C 117.651 493.334, 116.885 484.189, 116.902 466.843 C 116.935 430.985, 124.171 400.540, 140.214 368.759 C 156.230 337.029, 176.854 312.280, 204.909 291.123 C 249.700 257.345, 310.290 239.850, 365 244.898 C 394.432 247.613, 429.067 257.361, 451.371 269.206 C 455.978 271.653, 451.318 267.677, 443.716 262.676 C 428.179 252.454, 404.294 241.122, 388.892 236.664 C 373.845 232.309, 359.486 228.922, 350.500 227.607 C 337.554 225.714, 313.079 224.931, 301 226.024 M 830 251.065 C 771.917 266.206, 709.270 302.975, 632.500 366.983 C 616.324 380.469, 586.027 406.840, 578 414.421 C 574.975 417.277, 567.238 424.441, 560.807 430.340 L 549.114 441.066 551.437 447.283 C 555.312 457.653, 556.357 466.313, 555.708 482.680 C 555.054 499.194, 552.192 512.564, 545.473 530.504 C 543.479 535.827, 542.044 540.377, 542.283 540.617 C 542.523 540.856, 545.333 537.553, 548.529 533.276 C 557.306 521.531, 572.137 503.020, 584.403 488.500 C 594.408 476.658, 615.628 452.211, 616.953 451 C 617.254 450.725, 622.672 444.875, 628.994 438 C 664.373 399.527, 702.171 361.932, 737.016 330.560 C 745.532 322.893, 752.725 316.345, 753 316.009 C 754.111 314.652, 780.169 292.818, 789.778 285.193 C 803.577 274.243, 821.701 261.419, 833.021 254.594 C 843.240 248.434, 842.666 247.763, 830 251.065 M 439 373.636 C 410.829 376.458, 391.199 386.052, 376.871 404 C 360.238 424.835, 357.925 451.367, 370.320 479.139 C 375.724 491.249, 387.866 506.361, 401.148 517.512 C 410.864 525.669, 429.059 538, 431.379 538 C 435.397 538, 512.429 470.607, 536.767 445.799 L 543.035 439.411 537.267 429.989 C 525.642 410.999, 501.239 389.981, 480.793 381.350 C 467.568 375.768, 450.034 372.531, 439 373.636 M 539.488 449.807 C 532.431 456.415, 508.720 478.426, 501.526 485.046 C 498.212 488.096, 491.460 494.171, 486.522 498.546 C 481.585 502.921, 476.410 507.537, 475.022 508.805 C 473.635 510.073, 464.281 517.939, 454.236 526.285 L 435.971 541.461 440.750 543.570 C 458.245 551.291, 491.907 558.677, 517.583 560.427 L 526.665 561.047 531.762 550.273 C 539.060 534.846, 542.549 525.610, 545.928 512.774 C 550.162 496.691, 551.375 486.588, 550.697 473.083 C 550.170 462.598, 547.186 447.832, 545.185 445.807 C 544.808 445.425, 542.245 447.225, 539.488 449.807" stroke="none" fill="#c39712" fill-rule="evenodd"/></svg>